<svg xmlns="http://www.w3.org/2000/svg" width="32" height="32" viewBox="0 0 32 32" fill="none">
  <path d="M11.1998 22.6665L15.9998 17.8665L20.7998 22.6665L22.6665 20.7998L17.8665 15.9998L22.6665 11.1998L20.7998 9.33317L15.9998 14.1332L11.1998 9.33317L9.33317 11.1998L14.1332 15.9998L9.33317 20.7998L11.1998 22.6665ZM15.9998 29.3332C14.1554 29.3332 12.4221 28.9829 10.7998 28.2825C9.17762 27.5821 7.7665 26.6323 6.5665 25.4332C5.3665 24.2332 4.41673 22.8221 3.71717 21.1998C3.01762 19.5776 2.66739 17.8443 2.6665 15.9998C2.6665 14.1554 3.01673 12.4221 3.71717 10.7998C4.41762 9.17762 5.36739 7.7665 6.5665 6.5665C7.7665 5.3665 9.17762 4.41673 10.7998 3.71717C12.4221 3.01762 14.1554 2.66739 15.9998 2.6665C17.8443 2.6665 19.5776 3.01673 21.1998 3.71717C22.8221 4.41762 24.2332 5.36739 25.4332 6.5665C26.6332 7.7665 27.5834 9.17762 28.2838 10.7998C28.9843 12.4221 29.3341 14.1554 29.3332 15.9998C29.3332 17.8443 28.9829 19.5776 28.2825 21.1998C27.5821 22.8221 26.6323 24.2332 25.4332 25.4332C24.2332 26.6332 22.8221 27.5834 21.1998 28.2838C19.5776 28.9843 17.8443 29.3341 15.9998 29.3332Z" fill="black"/>
</svg>