<svg xmlns="http://www.w3.org/2000/svg" width="32" height="32" viewBox="0 0 32 32" fill="none">
  <path d="M15.9998 29.3332C23.3638 29.3332 29.3332 23.3638 29.3332 15.9998C29.3332 8.63584 23.3638 2.6665 15.9998 2.6665C8.63584 2.6665 2.6665 8.63584 2.6665 15.9998C2.6665 23.3638 8.63584 29.3332 15.9998 29.3332Z" fill="black"/>
  <path d="M16 20.0134C15.7467 20.0134 15.4933 19.9201 15.2933 19.7201L10.5867 15.0134C10.4007 14.8252 10.2964 14.5713 10.2964 14.3067C10.2964 14.0422 10.4007 13.7882 10.5867 13.6001C10.9733 13.2134 11.6133 13.2134 12 13.6001L16 17.6001L20 13.6001C20.3867 13.2134 21.0267 13.2134 21.4133 13.6001C21.8 13.9867 21.8 14.6267 21.4133 15.0134L16.7067 19.7201C16.5067 19.9201 16.2533 20.0134 16 20.0134Z" fill="#F1F3F4"/>
</svg>