<svg xmlns="http://www.w3.org/2000/svg" width="24" height="24" viewBox="0 0 24 24" fill="none">
  <g clip-path="url(#clip0_2700_6894)">
    <path d="M6.80314 0.0812157C5.56756 0.139511 4.72379 0.336693 3.98616 0.626543C3.22275 0.924058 2.57569 1.3233 1.93189 1.96942C1.28809 2.61555 0.891634 3.26307 0.59621 4.02764C0.310307 4.7669 0.116609 5.61137 0.0620301 6.84764C0.0074509 8.08392 -0.00462621 8.4813 0.00141234 11.6348C0.00745089 14.7883 0.021386 15.1836 0.081307 16.4225C0.140299 17.6578 0.336784 18.5013 0.626634 19.2392C0.924614 20.0026 1.32339 20.6494 1.96975 21.2935C2.6161 21.9375 3.26316 22.333 4.02959 22.6289C4.76815 22.9144 5.61285 23.109 6.8489 23.1631C8.08494 23.2172 8.48279 23.2298 11.6354 23.2237C14.788 23.2177 15.1849 23.2038 16.4235 23.145C17.6621 23.0862 18.5012 22.8884 19.2393 22.5999C20.0027 22.3012 20.65 21.9031 21.2936 21.2566C21.9371 20.61 22.3334 19.962 22.6286 19.1969C22.9147 18.4584 23.1091 17.6137 23.1627 16.3786C23.2168 15.139 23.2296 14.7433 23.2236 11.5902C23.2175 8.43718 23.2034 8.04188 23.1446 6.80352C23.0859 5.56515 22.8891 4.72416 22.5995 3.98584C22.3011 3.22242 21.9028 2.57607 21.2566 1.93157C20.6105 1.28707 19.9621 0.891078 19.1973 0.596583C18.4582 0.310681 17.614 0.115821 16.378 0.0624033C15.1419 0.00898538 14.7441 -0.00471749 11.5903 0.00132106C8.43657 0.00735961 8.04174 0.0208302 6.80314 0.0812157ZM6.93878 21.074C5.80655 21.0248 5.19178 20.8366 4.78209 20.6792C4.23955 20.4701 3.85308 20.2175 3.44478 19.8131C3.03648 19.4088 2.78565 19.0209 2.57383 18.4795C2.41474 18.0698 2.22313 17.4557 2.17018 16.3235C2.11258 15.0998 2.10051 14.7324 2.09377 11.632C2.08703 8.5317 2.09888 8.16474 2.15253 6.94054C2.20084 5.80925 2.39012 5.19378 2.54736 4.78432C2.75638 4.24108 3.00815 3.85531 3.41343 3.44724C3.8187 3.03918 4.2054 2.78788 4.74725 2.57607C5.15648 2.41628 5.77055 2.22629 6.90231 2.17241C8.12698 2.11435 8.49394 2.10274 11.5938 2.096C14.6937 2.08927 15.0616 2.10088 16.2867 2.15476C17.418 2.204 18.0337 2.39143 18.4427 2.54959C18.9855 2.75862 19.3717 3.00968 19.7798 3.41566C20.1878 3.82163 20.4393 4.20694 20.6512 4.74994C20.8112 5.15801 21.0012 5.77185 21.0546 6.90431C21.1129 8.12898 21.1261 8.49617 21.1317 11.5958C21.1373 14.6954 21.1264 15.0636 21.0727 16.2873C21.0232 17.4195 20.8356 18.0345 20.6779 18.4447C20.4688 18.987 20.2169 19.3737 19.8113 19.7815C19.4058 20.1894 19.0196 20.4407 18.4775 20.6525C18.0688 20.812 17.454 21.0025 16.3231 21.0564C15.0985 21.1139 14.7315 21.126 11.6305 21.1328C8.52947 21.1395 8.16367 21.127 6.93901 21.074M16.4056 5.40606C16.4061 5.68169 16.4882 5.95099 16.6418 6.1799C16.7953 6.40882 17.0133 6.58707 17.2681 6.6921C17.5229 6.79713 17.8032 6.82423 18.0734 6.76998C18.3437 6.71572 18.5917 6.58254 18.7863 6.38728C18.9808 6.19203 19.1131 5.94346 19.1663 5.67303C19.2196 5.40259 19.1915 5.12244 19.0855 4.86799C18.9796 4.61354 18.8005 4.39624 18.571 4.24355C18.3416 4.09087 18.072 4.00967 17.7963 4.01022C17.4268 4.01096 17.0727 4.15842 16.8119 4.42018C16.5511 4.68193 16.405 5.03655 16.4056 5.40606ZM5.65001 11.6241C5.65651 14.9175 8.33113 17.5812 11.6238 17.5749C14.9164 17.5686 17.582 14.8942 17.5757 11.6009C17.5694 8.30758 14.8941 5.64318 11.601 5.64969C8.3079 5.65619 5.64374 8.33127 5.65001 11.6241ZM7.74167 11.62C7.74016 10.8544 7.9657 10.1055 8.38979 9.46809C8.81387 8.83068 9.41745 8.33333 10.1242 8.03895C10.8309 7.74457 11.6091 7.66637 12.3603 7.81425C13.1115 7.96212 13.8019 8.32943 14.3444 8.86971C14.8868 9.41 15.2568 10.099 15.4077 10.8496C15.5585 11.6002 15.4834 12.3787 15.1918 13.0866C14.9002 13.7945 14.4053 14.4 13.7696 14.8266C13.1338 15.2532 12.3859 15.4817 11.6203 15.4832C11.1119 15.4843 10.6083 15.3852 10.1383 15.1916C9.66822 14.9981 9.2409 14.7138 8.88073 14.355C8.52055 13.9963 8.23458 13.5701 8.03914 13.1008C7.8437 12.6315 7.74262 12.1283 7.74167 11.62Z" fill="#FDFDFD"/>
  </g>
  <defs>
    <clipPath id="clip0_2700_6894">
      <rect width="23.2252" height="23.2252" fill="white"/>
    </clipPath>
  </defs>
</svg>