<svg xmlns="http://www.w3.org/2000/svg" width="29" height="23" viewBox="0 0 29 23" fill="none">
  <g clip-path="url(#clip0_2700_6899)">
    <path d="M25.8967 21.3973C25.9546 21.3979 26.0121 21.3867 26.0655 21.3643C26.1189 21.3419 26.1671 21.3088 26.2071 21.2671C26.2471 21.2255 26.278 21.1761 26.298 21.1221C26.318 21.068 26.3266 21.0105 26.3232 20.953C26.3232 20.6379 26.1318 20.4873 25.7391 20.4873H25.1045V22.1372H25.3432V21.418H25.6365L25.6432 21.4268L26.0983 22.1372H26.3536L25.8639 21.4019L25.8967 21.3973ZM25.6206 21.2321H25.3439V20.6743H25.6947C25.8759 20.6743 26.0825 20.7037 26.0825 20.9393C26.0825 21.2104 25.8734 21.2321 25.6192 21.2321" fill="#FDFDFD"/>
    <path d="M19.6708 19.3296H16.2862V14.0655C16.2862 12.8102 16.2637 11.1943 14.5259 11.1943C12.7632 11.1943 12.4935 12.562 12.4935 13.9741V19.3292H9.10893V8.50414H12.3581V9.9835H12.4036C12.7287 9.43134 13.1986 8.9771 13.7631 8.66917C14.3277 8.36124 14.9657 8.21115 15.6093 8.23488C19.0397 8.23488 19.6722 10.4758 19.6722 13.3911L19.6708 19.3296ZM5.29007 7.02442C4.90161 7.02449 4.52185 6.91015 4.19882 6.69587C3.87579 6.48159 3.62401 6.17698 3.47529 5.82057C3.32657 5.46416 3.28759 5.07195 3.36331 4.69355C3.43903 4.31514 3.62603 3.96753 3.90066 3.69468C4.1753 3.42183 4.52523 3.23598 4.90621 3.16065C5.28719 3.08531 5.6821 3.12387 6.04102 3.27145C6.39993 3.41902 6.70672 3.66899 6.9226 3.98974C7.13847 4.31048 7.25373 4.6876 7.2538 5.07341C7.25385 5.32957 7.20309 5.58324 7.10442 5.81992C7.00576 6.0566 6.86114 6.27167 6.67879 6.45284C6.49644 6.63401 6.27994 6.77773 6.04166 6.8758C5.80339 6.97387 5.548 7.02437 5.29007 7.02442ZM6.98233 19.3296H3.59429V8.50414H6.98233V19.3296ZM21.3581 0.0015456H1.89357C1.45178 -0.00340593 1.02607 0.166042 0.710006 0.472655C0.393946 0.779268 0.2134 1.19796 0.208008 1.63673V21.0485C0.213215 21.4874 0.393656 21.9064 0.709705 22.2134C1.02575 22.5203 1.45156 22.6901 1.89357 22.6854H21.3581C21.801 22.6909 22.228 22.5216 22.5453 22.2147C22.8626 21.9078 23.0442 21.4883 23.0503 21.0485V1.63533C23.044 1.19569 22.8623 0.776521 22.545 0.469916C22.2276 0.16331 21.8008 -0.00565383 21.3581 0.000144452" fill="#FDFDFD"/>
    <path d="M25.6495 19.752C25.2378 19.7559 24.8443 19.9216 24.5552 20.2129C24.2661 20.5042 24.105 20.8973 24.107 21.3063C24.1089 21.7153 24.2739 22.1068 24.5658 22.3953C24.8577 22.6838 25.2527 22.8458 25.6645 22.8458C26.0763 22.8458 26.4714 22.6838 26.7632 22.3953C27.0551 22.1068 27.2201 21.7153 27.2221 21.3063C27.2241 20.8973 27.0629 20.5042 26.7738 20.2129C26.4848 19.9216 26.0913 19.7559 25.6795 19.752H25.6495ZM25.6495 22.6687C25.3795 22.6731 25.1141 22.5979 24.887 22.4526C24.66 22.3073 24.4814 22.0984 24.3739 21.8523C24.2664 21.6062 24.2347 21.3339 24.283 21.0699C24.3313 20.806 24.4573 20.5622 24.6451 20.3693C24.8329 20.1765 25.0741 20.0433 25.3381 19.9866C25.6021 19.9299 25.8772 19.9522 26.1284 20.0507C26.3797 20.1492 26.5959 20.3195 26.7496 20.5401C26.9034 20.7607 26.9879 21.0215 26.9924 21.2898C26.9924 21.2975 26.9924 21.3049 26.9924 21.3126C27 21.6644 26.8665 22.0049 26.6214 22.2591C26.3762 22.5133 26.0395 22.6603 25.6851 22.668H25.6499" fill="#FDFDFD"/>
  </g>
  <defs>
    <clipPath id="clip0_2700_6899">
      <rect width="27.9786" height="22.9487" fill="white" transform="translate(0.208008)"/>
    </clipPath>
  </defs>
</svg>